Coordinates
version=1
nRows=26
nColumns=11
inDegrees=yes

Units are S.I. units (second, meters, Newtons, ...)
If the header above contains a line with 'inDegrees', this indicates whether rotational values are in degrees (yes) or radians (no).

endheader
time	pelvis_tilt	pelvis_tx	pelvis_ty	hip_flexion_l	hip_flexion_r	knee_angle_l	knee_angle_r	ankle_angle_l	ankle_angle_r	lumbar
     19.50000000	     -4.24465283	     -0.01413773	      0.72699182	     74.35722300	     74.35722300	    -75.60300218	    -75.60300218	      6.41266924	      6.41266924	    -45.98007800
     19.51000000	     -5.22629100	     -0.01114513	      0.72697110	     75.07526578	     75.07526578	    -75.47101665	    -75.47101665	      6.57381442	      6.57381442	    -45.99434286
     19.52000000	     -6.23832489	     -0.00805910	      0.72701260	     75.80455337	     75.80455337	    -75.32344492	    -75.32344492	      6.73840219	      6.73840219	    -45.98539871
     19.53000000	     -7.27899118	     -0.00487404	      0.72712250	     76.53820395	     76.53820395	    -75.15512316	    -75.15512316	      6.90391486	      6.90391486	    -45.94750111
     19.54000000	     -8.33301728	     -0.00159056	      0.72732576	     77.26402642	     77.26402642	    -74.96811200	    -74.96811200	      7.06915851	      7.06915851	    -45.89505705
     19.55000000	     -9.40804396	      0.00178919	      0.72761150	     77.98677073	     77.98677073	    -74.76721663	    -74.76721663	      7.23638238	      7.23638238	    -45.81380555
     19.56000000	    -10.48930810	      0.00528051	      0.72797331	     78.69722656	     78.69722656	    -74.55396034	    -74.55396034	      7.40070999	      7.40070999	    -45.70539183
     19.57000000	    -11.56346275	      0.00886308	      0.72844919	     79.37863306	     79.37863306	    -74.32862305	    -74.32862305	      7.56588843	      7.56588843	    -45.58881815
     19.58000000	    -12.67333766	      0.01251564	      0.72893648	     80.07991647	     80.07991647	    -74.08870465	    -74.08870465	      7.74405703	      7.74405703	    -45.41067896
     19.59000000	    -13.67456430	      0.01630974	      0.72966847	     80.65494157	     80.65494157	    -73.85931309	    -73.85931309	      7.90497210	      7.90497210	    -45.30574466
     19.60000000	    -14.69637830	      0.02016694	      0.73042885	     81.23399827	     81.23399827	    -73.61987980	    -73.61987980	      8.08239267	      8.08239267	    -45.15120867
     19.61000000	    -15.68502961	      0.02410620	      0.73128004	     81.76787665	     81.76787665	    -73.37856965	    -73.37856965	      8.26679634	      8.26679634	    -44.99030025
     19.62000000	    -16.63186105	      0.02812379	      0.73222690	     82.24839984	     82.24839984	    -73.13787863	    -73.13787863	      8.45894890	      8.45894890	    -44.82897195
     19.63000000	    -17.53644290	      0.03219476	      0.73326607	     82.67841603	     82.67841603	    -72.90048644	    -72.90048644	      8.66518976	      8.66518976	    -44.66563211
     19.64000000	    -18.38596586	      0.03632170	      0.73440142	     83.04532419	     83.04532419	    -72.66770645	    -72.66770645	      8.88686574	      8.88686574	    -44.50830158
     19.65000000	    -19.17438002	      0.04049055	      0.73562690	     83.34767216	     83.34767216	    -72.44395418	    -72.44395418	      9.11856025	      9.11856025	    -44.35425763
     19.66000000	    -19.90473043	      0.04466926	      0.73696226	     83.58753294	     83.58753294	    -72.21928737	    -72.21928737	      9.34796016	      9.34796016	    -44.21604845
     19.67000000	    -20.46786983	      0.04890372	      0.73871736	     83.62125964	     83.62125964	    -71.95404833	    -71.95404833	      9.46235486	      9.46235486	    -44.21724274
     19.68000000	    -21.17366622	      0.05302304	      0.73989735	     83.87497316	     83.87497316	    -71.78881993	    -71.78881993	      9.83266189	      9.83266189	    -43.94279113
     19.69000000	    -21.68674949	      0.05719855	      0.74151711	     83.90726773	     83.90726773	    -71.59823057	    -71.59823057	     10.09818898	     10.09818898	    -43.83300835
     19.70000000	    -22.10099429	      0.06137576	      0.74339168	     83.82123588	     83.82123588	    -71.37309833	    -71.37309833	     10.18500876	     10.18500876	    -43.78429166
     19.71000000	    -22.56325075	      0.06545759	      0.74502599	     83.81505351	     83.81505351	    -71.19389214	    -71.19389214	     10.60668395	     10.60668395	    -43.58967448
     19.72000000	    -22.90298618	      0.06954606	      0.74697915	     83.66863087	     83.66863087	    -70.97755906	    -70.97755906	     10.67245742	     10.67245742	    -43.48924755
     19.73000000	    -23.22983456	      0.07361570	      0.74894917	     83.50315445	     83.50315445	    -70.76851604	    -70.76851604	     11.11492670	     11.11492670	    -43.33580191
     19.74000000	    -23.52395074	      0.07761543	      0.75103799	     83.30087692	     83.30087692	    -70.52212316	    -70.52212316	     11.19366384	     11.19366384	    -43.17036721
     19.75000000	    -23.73912475	      0.08169492	      0.75328957	     83.00367562	     83.00367562	    -70.28917926	    -70.28917926	     11.59370809	     11.59370809	    -43.03725414
